# xmcd CD database file
#
# Track frame offsets:
#	183
#	9295
#	28650
#	39188
#	46220
#	66708
#	86845
#	100895
#	108913
#	117450
#	131570
#	141800
#	157058
#	167863
#	173720
#
# Disc length: 2511 seconds
#
# Revision: 13
# Processed by: cddbd v1.5.2PL0 Copyright (c) Steve Scherf et al.
# Submitted via: CDex 2.00
#
DISCID=ca09cd0f
DTITLE=Tom Waits - Swordfishtrombones
DYEAR=1983
DGENRE=Alternative
TTITLE0=Underground
TTITLE1=Shore Leave
TTITLE2=Dave The Butcher
TTITLE3=Johnsburg, Illinois
TTITLE4=16 Shells From A Thirty-Ought-Six
TTITLE5=Town With No Cheer
TTITLE6=In The Neighborhood
TTITLE7=Just Another Sucker On The Vine
TTITLE8=Frank's Wild Years
TTITLE9=Swordfishtrombones
TTITLE10=Down, Down, Down
TTITLE11=Soldier's Things
TTITLE12=Gin Soaked Boy
TTITLE13=Trouble's Braids
TTITLE14=Rainbirds
EXTD=YEAR: 1983
EXTT0=
EXTT1=
EXTT2=
EXTT3=
EXTT4=
EXTT5=
EXTT6=
EXTT7=
EXTT8=
EXTT9=
EXTT10=
EXTT11=
EXTT12=
EXTT13=
EXTT14=
PLAYORDER=
